[Header]
FileType HTR
DataType HTRS
FileVersion 1
NumSegments 64
NumFrames 4
DataFrameRate 24
EulerRotationOrder ZYX
CalibrationUnits mm
RotationUnits Degrees
GlobalAxisofGravity Y
BoneLengthAxis Y
ScaleFactor 1.0
[SegmentNames&Hierarchy]
Hips	GLOBAL
Spine	Hips
Spine1	Spine
Spine2	Spine1
Neck	Spine2
Head	Neck
LeftEye	Head
RightEye	Head
LeftShoulder	Spine2
LeftArm	LeftShoulder
LeftForeArm	LeftArm
LeftHand	LeftForeArm
LeftHandThumb1	LeftHand
LeftHandThumb2	LeftHandThumb1
LeftHandThumb3	LeftHandThumb2
LeftHandThumb4	LeftHandThumb3
LeftHandIndex1	LeftHand
LeftHandIndex2	LeftHandIndex1
LeftHandIndex3	LeftHandIndex2
LeftHandIndex4	LeftHandIndex3
LeftHandMiddle1	LeftHand
LeftHandMiddle2	LeftHandMiddle1
LeftHandMiddle3	LeftHandMiddle2
LeftHandMiddle4	LeftHandMiddle3
LeftHandRing1	LeftHand
LeftHandRing2	LeftHandRing1
LeftHandRing3	LeftHandRing2
LeftHandRing4	LeftHandRing3
LeftHandPinky1	LeftHand
LeftHandPinky2	LeftHandPinky1
LeftHandPinky3	LeftHandPinky2
LeftHandPinky4	LeftHandPinky3
RightShoulder	Spine2
RightArm	RightShoulder
RightForeArm	RightArm
RightHand	RightForeArm
RightHandPinky1	RightHand
RightHandPinky2	RightHandPinky1
RightHandPinky3	RightHandPinky2
RightHandPinky4	RightHandPinky3
RightHandRing1	RightHand
RightHandRing2	RightHandRing1
RightHandRing3	RightHandRing2
RightHandRing4	RightHandRing3
RightHandMiddle1	RightHand
RightHandMiddle2	RightHandMiddle1
RightHandMiddle3	RightHandMiddle2
RightHandMiddle4	RightHandMiddle3
RightHandIndex1	RightHand
RightHandIndex2	RightHandIndex1
RightHandIndex3	RightHandIndex2
RightHandIndex4	RightHandIndex3
RightHandThumb1	RightHand
RightHandThumb2	RightHandThumb1
RightHandThumb3	RightHandThumb2
RightHandThumb4	RightHandThumb3
LeftUpLeg	Hips
LeftLeg	LeftUpLeg
LeftFoot	LeftLeg
LeftToeBase	LeftFoot
RightUpLeg	Hips
RightLeg	RightUpLeg
RightFoot	RightLeg
RightToeBase	RightFoot
[BasePosition]
Hips	0	0	0	0	0	0	1
Spine	0	0	0	0	0	0	1
Spine1	0	0	0	0	0	0	1
Spine2	0	0	0	0	0	0	1
Neck	0	0	0	0	0	0	1
Head	0	0	0	0	0	0	1
LeftEye	0	0	0	0	0	0	1
RightEye	0	0	0	0	0	0	1
LeftShoulder	0	0	0	0	0	0	1
LeftArm	0	0	0	0	0	0	1
LeftForeArm	0	0	0	0	0	0	1
LeftHand	0	0	0	0	0	0	1
LeftHandThumb1	0	0	0	0	0	0	1
LeftHandThumb2	0	0	0	0	0	0	1
LeftHandThumb3	0	0	0	0	0	0	1
LeftHandThumb4	0	0	0	0	0	0	1
LeftHandIndex1	0	0	0	0	0	0	1
LeftHandIndex2	0	0	0	0	0	0	1
LeftHandIndex3	0	0	0	0	0	0	1
LeftHandIndex4	0	0	0	0	0	0	1
LeftHandMiddle1	0	0	0	0	0	0	1
LeftHandMiddle2	0	0	0	0	0	0	1
LeftHandMiddle3	0	0	0	0	0	0	1
LeftHandMiddle4	0	0	0	0	0	0	1
LeftHandRing1	0	0	0	0	0	0	1
LeftHandRing2	0	0	0	0	0	0	1
LeftHandRing3	0	0	0	0	0	0	1
LeftHandRing4	0	0	0	0	0	0	1
LeftHandPinky1	0	0	0	0	0	0	1
LeftHandPinky2	0	0	0	0	0	0	1
LeftHandPinky3	0	0	0	0	0	0	1
LeftHandPinky4	0	0	0	0	0	0	1
RightShoulder	0	0	0	0	0	0	1
RightArm	0	0	0	0	0	0	1
RightForeArm	0	0	0	0	0	0	1
RightHand	0	0	0	0	0	0	1
RightHandPinky1	0	0	0	0	0	0	1
RightHandPinky2	0	0	0	0	0	0	1
RightHandPinky3	0	0	0	0	0	0	1
RightHandPinky4	0	0	0	0	0	0	1
RightHandRing1	0	0	0	0	0	0	1
RightHandRing2	0	0	0	0	0	0	1
RightHandRing3	0	0	0	0	0	0	1
RightHandRing4	0	0	0	0	0	0	1
RightHandMiddle1	0	0	0	0	0	0	1
RightHandMiddle2	0	0	0	0	0	0	1
RightHandMiddle3	0	0	0	0	0	0	1
RightHandMiddle4	0	0	0	0	0	0	1
RightHandIndex1	0	0	0	0	0	0	1
RightHandIndex2	0	0	0	0	0	0	1
RightHandIndex3	0	0	0	0	0	0	1
RightHandIndex4	0	0	0	0	0	0	1
RightHandThumb1	0	0	0	0	0	0	1
RightHandThumb2	0	0	0	0	0	0	1
RightHandThumb3	0	0	0	0	0	0	1
RightHandThumb4	0	0	0	0	0	0	1
LeftUpLeg	0	0	0	0	0	0	1
LeftLeg	0	0	0	0	0	0	1
LeftFoot	0	0	0	0	0	0	1
LeftToeBase	0	0	0	0	0	0	1
RightUpLeg	0	0	0	0	0	0	1
RightLeg	0	0	0	0	0	0	1
RightFoot	0	0	0	0	0	0	1
RightToeBase	0	0	0	0	0	0	1
[Hips]
7	-959.7047119	988.4002686	40.45191956	2.311390162	-74.47081757	5.533612728	1.0
8	-1100.688599	971.5363159	54.09208298	-4.578539848	-72.63529205	11.93708229	1.0
9	-1230.009277	957.8592529	65.71202087	-10.20914459	-69.544487	19.53602409	1.0
10	-1369.261597	967.8823853	63.76517868	-13.31599236	-70.65479279	23.74010086	1.0
[Spine]
7	0	101.8159943	1.315000057	6.136601448	12.73899746	-1.531651378	1.0
8	0	101.8159943	1.315000057	6.884019375	9.108767509	-1.943669558	1.0
9	0	101.8159943	1.315000057	7.090444565	6.556164742	-3.640321255	1.0
10	0	101.8159943	1.315000057	6.519366741	4.837467194	-4.731592655	1.0
[Spine1]
7	0	100.8349991	-10.00800037	2.172054291	4.98582077	-0.9861721396	1.0
8	0	100.8349991	-10.00800037	2.430531979	3.678373575	-1.061067343	1.0
9	0	100.8349991	-10.00800037	2.508253336	2.632874489	-1.353540897	1.0
10	0	100.8349991	-10.00800037	2.363770008	1.833272099	-1.373308539	1.0
[Spine2]
7	0	91	-13.73399925	2.175935984	4.974923611	-1.02999723	1.0
8	0	91	-13.73399925	2.429265499	3.67015624	-1.101717591	1.0
9	0	91	-13.73399925	2.494751692	2.631400824	-1.385537148	1.0
10	0	91	-13.73399925	2.349277973	1.83752346	-1.393017054	1.0
[Neck]
7	0	166.7169952	-25.16200066	-0.3844276369	7.23374033	-0.5130294561	1.0
8	0	166.7169952	-25.16200066	-0.7703514099	8.35969162	-1.064979911	1.0
9	0	166.7169952	-25.16200066	-1.31978488	8.976220131	-1.605522633	1.0
10	0	166.7169952	-25.16200066	-1.096303463	9.585935593	-2.237987041	1.0
[Head]
7	0	96.17900085	16.84999847	-19.57087135	34.84993362	-17.64165497	1.0
8	0	96.17900085	16.84999847	-20.71737099	37.64733887	-18.22495651	1.0
9	0	96.17900085	16.84999847	-21.4905529	38.427845	-18.69726563	1.0
10	0	96.17900085	16.84999847	-21.86605644	39.71197128	-20.49307632	1.0
[LeftEye]
7	30.6760006	64.09500122	92.83599854	0	0	0	1.0
8	30.6760006	64.09500122	92.83599854	0	0	0	1.0
9	30.6760006	64.09500122	92.83599854	0	0	0	1.0
10	30.6760006	64.09500122	92.83599854	0	0	0	1.0
[RightEye]
7	-30.6760006	64.09500122	92.83499908	0	0	0	1.0
8	-30.6760006	64.09500122	92.83499908	0	0	0	1.0
9	-30.6760006	64.09500122	92.83499908	0	0	0	1.0
10	-30.6760006	64.09500122	92.83499908	0	0	0	1.0
[LeftShoulder]
7	45.70400238	109.4599991	-26.28000069	2.437005281	8.180410385	-14.95167351	1.0
8	45.70400238	109.4599991	-26.28000069	2.403526306	7.96023941	-14.74595928	1.0
9	45.70400238	109.4599991	-26.28000069	2.743860006	5.111041546	-13.35326385	1.0
10	45.70400238	109.4599991	-26.28000069	3.244009018	0.731254518	-11.53710461	1.0
[LeftArm]
7	105.923996	-5.24600029	-22.32099915	22.02596664	37.05976105	-23.63898659	1.0
8	105.923996	-5.24600029	-22.32099915	21.79032516	27.13413048	-30.23899078	1.0
9	105.923996	-5.24600029	-22.32099915	23.04073715	13.48037434	-37.68188477	1.0
10	105.923996	-5.24600029	-22.32099915	22.87311554	1.941864133	-43.7029953	1.0
[LeftForeArm]
7	278.414978	-0.0009999999311	0	-2.47661028e-05	-69.18865204	-0.0002044603025	1.0
8	278.414978	-0.0009999999311	0	-2.203541953e-05	-69.35276794	-0.0001757973369	1.0
9	278.414978	-0.0009999999311	0	2.575296094e-05	-65.52371216	-0.0002400980156	1.0
10	278.414978	-0.0009999999311	0	5.025167866e-06	-63.99425507	-0.0002186817728	1.0
[LeftHand]
7	283.2879944	0	0	40.54363632	21.82162857	-15.63678646	1.0
8	283.2879944	0	0	36.98682404	19.61410522	-9.86444664	1.0
9	283.2879944	0	0	30.72928047	15.08818531	-5.309326172	1.0
10	283.2879944	0	0	26.15643501	11.33713341	-8.848863602	1.0
[LeftHandThumb1]
7	24.6609993	-15.75	26.8239994	-4.062078953	10.72159958	6.51288271	1.0
8	24.6609993	-15.75	26.8239994	1.545709968	1.300152183	-2.86174655	1.0
9	24.6609993	-15.75	26.8239994	3.244536877	-1.9789958	-6.641001701	1.0
10	24.6609993	-15.75	26.8239994	1.281305313	-1.804739952	-5.731904507	1.0
[LeftHandThumb2]
7	32.29800034	-18.64699936	18.64699936	7.192060471	13.81349182	2.823148012	1.0
8	32.29800034	-18.64699936	18.64699936	6.442480564	16.59319305	9.493412971	1.0
9	32.29800034	-18.64699936	18.64699936	5.244246483	19.67014885	11.70030403	1.0
10	32.29800034	-18.64699936	18.64699936	4.55112648	21.28123665	11.22147751	1.0
[LeftHandThumb3]
7	26.52600098	-15.31499958	15.31499958	3.325521708	13.58033085	3.726181984	1.0
8	26.52600098	-15.31499958	15.31499958	3.640990019	14.56704235	2.74690938	1.0
9	26.52600098	-15.31499958	15.31499958	3.677485228	14.75541115	1.797253728	1.0
10	26.52600098	-15.31499958	15.31499958	3.361867905	13.90135956	1.557826877	1.0
[LeftHandThumb4]
7	19.54599953	-11.28499985	11.28499985	0	0	0	1.0
8	19.54599953	-11.28499985	11.28499985	0	0	0	1.0
9	19.54599953	-11.28499985	11.28499985	0	0	0	1.0
10	19.54599953	-11.28499985	11.28499985	0	0	0	1.0
[LeftHandIndex1]
7	91.09299469	-5.170999527	22.60099792	-1.191389918	2.985809803	-14.52073669	1.0
8	91.09299469	-5.170999527	22.60099792	-1.099340916	2.872087002	-13.48265743	1.0
9	91.09299469	-5.170999527	22.60099792	-1.234224916	2.65430212	-14.67364979	1.0
10	91.09299469	-5.170999527	22.60099792	-1.313293695	1.411646366	-16.22441483	1.0
[LeftHandIndex2]
7	36.76399994	0	0	-0.4165849388	2.336755276	-15.82551384	1.0
8	36.76399994	0	0	-0.4645797312	2.443461895	-16.97587967	1.0
9	36.76399994	0	0	-0.4741093814	2.46398592	-17.19855309	1.0
10	36.76399994	0	0	-0.4205732048	2.34585762	-15.92332458	1.0
[LeftHandIndex3]
7	28.83100128	0	0	-0.1361718178	0.9431625605	-11.56419563	1.0
8	28.83100128	0	0	-0.1604280621	1.055968404	-12.71160412	1.0
9	28.83100128	0	0	-0.1653777212	1.077743649	-12.933671	1.0
10	28.83100128	0	0	-0.1381034404	0.9526084661	-11.66001415	1.0
[LeftHandIndex4]
7	23.92700005	0	0	0	0	0	1.0
8	23.92700005	0	0	0	0	0	1.0
9	23.92700005	0	0	0	0	0	1.0
10	23.92700005	0	0	0	0	0	1.0
[LeftHandMiddle1]
7	95.33399963	0	0	-2.824263573	6.671216488	-26.42516327	1.0
8	95.33399963	0	0	-2.796477079	7.175652981	-26.16555786	1.0
9	95.33399963	0	0	-3.214916706	7.013751507	-29.34544563	1.0
10	95.33399963	0	0	-3.79027462	5.862528801	-33.69454575	1.0
[LeftHandMiddle2]
7	36.98199844	0	0	-1.33822298	3.72513938	-32.10873413	1.0
8	36.98199844	0	0	-1.358975649	3.748530149	-32.41825104	1.0
9	36.98199844	0	0	-1.339240789	3.726309299	-32.12418365	1.0
10	36.98199844	0	0	-1.275723219	3.653059244	-31.16570473	1.0
[LeftHandMiddle3]
7	29.50900078	0	0	-0.3500986397	2.148869753	-19.23580933	1.0
8	29.50900078	0	0	-0.3608845472	2.177643061	-19.54463577	1.0
9	29.50900078	0	0	-0.350708127	2.150484562	-19.25303078	1.0
10	29.50900078	0	0	-0.3183036447	2.060979128	-18.29571533	1.0
[LeftHandMiddle4]
7	28.3390007	0	0	0	0	0	1.0
8	28.3390007	0	0	0	0	0	1.0
9	28.3390007	0	0	0	0	0	1.0
10	28.3390007	0	0	0	0	0	1.0
[LeftHandRing1]
7	91.04499817	-0.4390000105	-18.65100098	-4.824576378	11.2739439	-40.37961197	1.0
8	91.04499817	-0.4390000105	-18.65100098	-4.983390808	11.43637943	-41.45949173	1.0
9	91.04499817	-0.4390000105	-18.65100098	-5.253292561	11.23301125	-43.46231079	1.0
10	91.04499817	-0.4390000105	-18.65100098	-5.45795393	10.8469677	-45.05913162	1.0
[LeftHandRing2]
7	31.54000092	0	0	-1.076264143	3.894923687	-38.16712952	1.0
8	31.54000092	0	0	-1.075246215	3.893505096	-38.14937973	1.0
9	31.54000092	0	0	-1.055464745	3.866137505	-37.80805206	1.0
10	31.54000092	0	0	-1.020053148	3.816225052	-37.18955231	1.0
[LeftHandRing3]
7	29.37700081	0	0	-0.45402053	2.939962149	-30.392519	1.0
8	29.37700081	0	0	-0.4532930553	2.93837595	-30.3747673	1.0
9	29.37700081	0	0	-0.4392651618	2.90774107	-30.03591919	1.0
10	29.37700081	0	0	-0.4142137468	2.851763487	-29.4191227	1.0
[LeftHandRing4]
7	26.47500038	0	0	0	0	0	1.0
8	26.47500038	0	0	0	0	0	1.0
9	26.47500038	0	0	0	0	0	1.0
10	26.47500038	0	0	0	0	0	1.0
[LeftHandPinky1]
7	80.77799988	-4.887000084	-38.06099701	-7.066919327	16.57445145	-49.42121124	1.0
8	80.77799988	-4.887000084	-38.06099701	-7.135863304	16.01638603	-52.00455475	1.0
9	80.77799988	-4.887000084	-38.06099701	-7.06263876	14.81984234	-54.18974686	1.0
10	80.77799988	-4.887000084	-38.06099701	-7.205845833	12.83795166	-56.08910751	1.0
[LeftHandPinky2]
7	36	0	0	-2.68538022	4.36534214	-54.90639114	1.0
8	36	0	0	-2.647042751	4.341283321	-54.45232773	1.0
9	36	0	0	-2.672390223	4.357243538	-54.75292206	1.0
10	36	0	0	-2.706749916	4.378578663	-55.158535	1.0
[LeftHandPinky3]
7	21.14200211	0	0	-0.8231756687	3.351368189	-26.40765381	1.0
8	21.14200211	0	0	-0.7998386025	3.31269598	-25.95640564	1.0
9	21.14200211	0	0	-0.8158056736	3.339208364	-26.26548576	1.0
10	21.14200211	0	0	-0.836783886	3.373581648	-26.66776657	1.0
[LeftHandPinky4]
7	19.75699997	0	0	0	0	0	1.0
8	19.75699997	0	0	0	0	0	1.0
9	19.75699997	0	0	0	0	0	1.0
10	19.75699997	0	0	0	0	0	1.0
[RightShoulder]
7	-45.70000076	109.4620056	-26.28000069	9.192501068	25.17341805	21.56468201	1.0
8	-45.70000076	109.4620056	-26.28000069	8.48793602	24.88419342	19.26130295	1.0
9	-45.70000076	109.4620056	-26.28000069	7.101360321	22.46209145	15.66895866	1.0
10	-45.70000076	109.4620056	-26.28000069	5.678232193	19.35836983	11.86163712	1.0
[RightArm]
7	-105.9280014	-5.248000145	-22.32099915	13.36168098	-4.419656277	34.95761108	1.0
8	-105.9280014	-5.248000145	-22.32099915	15.42572689	-9.480419159	39.19335938	1.0
9	-105.9280014	-5.248000145	-22.32099915	18.08638573	-16.73402405	41.23315048	1.0
10	-105.9280014	-5.248000145	-22.32099915	23.43966866	-26.48010635	38.64528656	1.0
[RightForeArm]
7	-278.414978	0	0	4.577636719e-05	93.33689117	0.0001220703125	1.0
8	-278.414978	0	0	-2.746769678e-05	77.70948029	-2.266993761e-05	1.0
9	-278.414978	0	0	1.742598397e-05	65.6027298	-1.305935939e-06	1.0
10	-278.414978	0	0	2.468459206e-05	65.78154755	3.484189074e-05	1.0
[RightHand]
7	-283.2879944	0	0.0009999999311	15.91990757	15.4170351	-37.1689682	1.0
8	-283.2879944	0	0.0009999999311	5.941132545	16.50045204	-45.53688049	1.0
9	-283.2879944	0	0.0009999999311	-5.263475895	19.92580795	-45.0900116	1.0
10	-283.2879944	0	0.0009999999311	-17.00491142	29.47511101	-38.31592941	1.0
[RightHandPinky1]
7	-80.76699829	-4.885000229	-38.06000137	-5.179594517	-10.40831089	28.32697487	1.0
8	-80.76699829	-4.885000229	-38.06000137	-3.372891426	-14.43258572	24.45608902	1.0
9	-80.76699829	-4.885000229	-38.06000137	-2.201726437	-14.18940926	20.59860611	1.0
10	-80.76699829	-4.885000229	-38.06000137	-1.539257169	-12.55676937	13.76486111	1.0
[RightHandPinky2]
7	-36	0	0.0009999999311	-0.6163879037	-2.111264467	23.88612938	1.0
8	-36	0	0.0009999999311	-0.4411741793	-1.734249115	19.72629929	1.0
9	-36	0	0.0009999999311	-0.5164877176	-1.905189157	21.59474182	1.0
10	-36	0	0.0009999999311	-0.6627984643	-2.20036149	24.8915081	1.0
[RightHandPinky3]
7	-21.14200211	0	0	-0.1426344365	2.429065704	-2.524004936	1.0
8	-21.14200211	0	0	-0.1401813477	2.835772514	-6.579037666	1.0
9	-21.14200211	0	0	-0.1377370059	2.651470423	-4.741472244	1.0
10	-21.14200211	0	0	-0.1478703469	2.325564623	-1.491119981	1.0
[RightHandPinky4]
7	-19.75699997	0	0	0	0	0	1.0
8	-19.75699997	0	0	0	0	0	1.0
9	-19.75699997	0	0	0	0	0	1.0
10	-19.75699997	0	0	0	0	0	1.0
[RightHandRing1]
7	-91.03599548	-0.4390000105	-18.65100098	-2.76251626	-8.526906013	26.09749031	1.0
8	-91.03599548	-0.4390000105	-18.65100098	-2.609458208	-10.83877087	24.00321388	1.0
9	-91.03599548	-0.4390000105	-18.65100098	-2.32050395	-10.55204487	21.82027054	1.0
10	-91.03599548	-0.4390000105	-18.65100098	-1.639886379	-9.056424141	16.82775307	1.0
[RightHandRing2]
7	-31.54000092	0	0	-0.234705478	-2.198481321	18.95493317	1.0
8	-31.54000092	0	0	-0.1559769511	-1.909683347	15.93477726	1.0
9	-31.54000092	0	0	-0.1687360108	-1.960868239	16.46687889	1.0
10	-31.54000092	0	0	-0.2111060917	-2.117967606	18.1084137	1.0
[RightHandRing3]
7	-29.37700081	0	0	-0.02476958558	0.8830031157	9.765880585	1.0
8	-29.37700081	0	0	-0.0110510774	1.182965875	6.750716209	1.0
9	-29.37700081	0	0	-0.01226241421	1.132225275	7.260269165	1.0
10	-29.37700081	0	0	-0.01909158379	0.9710927606	8.879565239	1.0
[RightHandRing4]
7	-26.47500038	0	0	0	0	0	1.0
8	-26.47500038	0	0	0	0	0	1.0
9	-26.47500038	0	0	0	0	0	1.0
10	-26.47500038	0	0	0	0	0	1.0
[RightHandMiddle1]
7	-95.32500458	0	0	-2.178793907	-1.760240436	21.99826813	1.0
8	-95.32500458	0	0	-1.777007103	-6.096291065	18.21486855	1.0
9	-95.32500458	0	0	-1.347481966	-6.192296982	14.64680862	1.0
10	-95.32500458	0	0	-0.5283508897	-3.700687885	7.746684551	1.0
[RightHandMiddle2]
7	-36.98199844	0	0	-0.554253459	-2.58596015	18.41463661	1.0
8	-36.98199844	0	0	-0.4939537942	-2.467742682	17.10424232	1.0
9	-36.98199844	0	0	-0.5036645532	-2.487228155	17.31926346	1.0
10	-36.98199844	0	0	-0.5413420796	-2.561237335	18.13917732	1.0
[RightHandMiddle3]
7	-29.50900078	0	0	-0.1021857187	-1.063743353	9.535709381	1.0
8	-29.50900078	0	0	-0.07591220737	-0.9129040837	7.997124195	1.0
9	-29.50900078	0	0	-0.07766318321	-0.9237741828	8.107747078	1.0
10	-29.50900078	0	0	-0.09214174747	-1.008803844	8.974459648	1.0
[RightHandMiddle4]
7	-28.3390007	0	0.0009999999311	0	0	0	1.0
8	-28.3390007	0	0.0009999999311	0	0	0	1.0
9	-28.3390007	0	0.0009999999311	0	0	0	1.0
10	-28.3390007	0	0.0009999999311	0	0	0	1.0
[RightHandIndex1]
7	-91.08300018	-5.167999744	22.60099792	-1.404768229	1.124160051	17.12041855	1.0
8	-91.08300018	-5.167999744	22.60099792	-0.9046180248	-2.750507832	12.94300938	1.0
9	-91.08300018	-5.167999744	22.60099792	-0.3321548998	-2.157935619	6.37757206	1.0
10	-91.08300018	-5.167999744	22.60099792	0.4976003468	0.5949288011	-2.976962328	1.0
[RightHandIndex2]
7	-36.76399994	0	0	-0.1759905219	-1.68278265	8.973693848	1.0
8	-36.76399994	0	0	-0.154528901	-1.609854579	8.226806641	1.0
9	-36.76399994	0	0	-0.1835760176	-1.707713127	9.229785919	1.0
10	-36.76399994	0	0	-0.2431212217	-1.89123857	11.12615108	1.0
[RightHandIndex3]
7	-28.83100128	0	0	-0.1395848244	0.3355821371	8.843267441	1.0
8	-28.83100128	0	0	-0.1238479465	0.4435732663	7.758431435	1.0
9	-28.83100128	0	0	-0.1369479746	0.3526669741	8.671406746	1.0
10	-28.83100128	0	0	-0.1707578003	0.1544379145	10.67079163	1.0
[RightHandIndex4]
7	-23.92700005	0	0	0	0	0	1.0
8	-23.92700005	0	0	0	0	0	1.0
9	-23.92700005	0	0	0	0	0	1.0
10	-23.92700005	0	0	0	0	0	1.0
[RightHandThumb1]
7	-24.64799881	-15.72700024	26.82600021	2.989204407	-1.184392095	2.842379332	1.0
8	-24.64799881	-15.72700024	26.82600021	3.684743881	-2.404632568	2.066488743	1.0
9	-24.64799881	-15.72700024	26.82600021	3.565522909	-2.163986444	2.234146833	1.0
10	-24.64799881	-15.72700024	26.82600021	3.350162029	-1.780098319	2.482514143	1.0
[RightHandThumb2]
7	-32.29800034	-18.64699936	18.64699936	2.945365429	-16.04131317	-10.69478798	1.0
8	-32.29800034	-18.64699936	18.64699936	2.973728418	-14.71214485	-10.04831409	1.0
9	-32.29800034	-18.64699936	18.64699936	3.032250404	-14.41615677	-10.91454792	1.0
10	-32.29800034	-18.64699936	18.64699936	3.467439651	-13.84241486	-15.06279373	1.0
[RightHandThumb3]
7	-26.52600098	-15.31399918	15.31399918	0.379027158	-1.722098351	2.110115767	1.0
8	-26.52600098	-15.31399918	15.31399918	0.2325444818	0.2047244459	3.397783279	1.0
9	-26.52600098	-15.31399918	15.31399918	0.1698664278	-0.9389844537	2.890587568	1.0
10	-26.52600098	-15.31399918	15.31399918	0.2057941854	-1.728933096	2.553422451	1.0
[RightHandThumb4]
7	-19.54599953	-11.28499985	11.28499985	0	0	0	1.0
8	-19.54599953	-11.28499985	11.28499985	0	0	0	1.0
9	-19.54599953	-11.28499985	11.28499985	0	0	0	1.0
10	-19.54599953	-11.28499985	11.28499985	0	0	0	1.0
[LeftUpLeg]
7	82.07800293	-67.51699829	-15.99599934	-36.45870209	-3.9590168	-6.708558083	1.0
8	82.07800293	-67.51699829	-15.99599934	-30.47814178	-5.415493488	-7.965180874	1.0
9	82.07800293	-67.51699829	-15.99599934	-24.05210495	-8.077242851	-10.02193069	1.0
10	82.07800293	-67.51699829	-15.99599934	-10.61777496	-3.937083006	-9.697681427	1.0
[LeftLeg]
7	0	-443.7049866	2.845999956	31.64064026	-1.366730452	3.450999975	1.0
8	0	-443.7049866	2.845999956	38.79232788	-1.362103343	3.35478878	1.0
9	0	-443.7049866	2.845999956	40.74624252	-1.761742711	3.865602255	1.0
10	0	-443.7049866	2.845999956	28.70633316	-2.99179101	4.722533226	1.0
[LeftFoot]
7	0	-444.2789917	-29.8219986	-12.22990799	-0.6227936745	-2.890375376	1.0
8	0	-444.2789917	-29.8219986	-14.75224686	-0.4677031636	1.5456779	1.0
9	0	-444.2789917	-29.8219986	-24.34001541	0.03755235672	0.1064262241	1.0
10	0	-444.2789917	-29.8219986	-25.11983109	-0.09913197905	-2.503473997	1.0
[LeftToeBase]
7	0	-87.28699493	107.1060028	-3.985020161	-2.199621349e-06	-5.131476883e-06	1.0
8	0	-87.28699493	107.1060028	-4.499891281	-1.587662882e-05	4.695899349e-07	1.0
9	0	-87.28699493	107.1060028	-1.897019148	-4.402972081e-06	4.834010383e-07	1.0
10	0	-87.28699493	107.1060028	-3.445694208	-2.164967918e-05	-2.480322792e-06	1.0
[RightUpLeg]
7	-82.07800293	-67.51699829	-15.99599934	8.426057816	-11.00006676	7.289980888	1.0
8	-82.07800293	-67.51699829	-15.99599934	-3.478417873	-11.55679417	2.738384485	1.0
9	-82.07800293	-67.51699829	-15.99599934	-20.5049324	-11.25429058	-1.934867024	1.0
10	-82.07800293	-67.51699829	-15.99599934	-37.87836838	-6.990149021	-4.470603466	1.0
[RightLeg]
7	0	-443.7049866	2.861999989	54.33394623	-1.381317258	-11.58311367	1.0
8	0	-443.7049866	2.861999989	78.78238678	0.9877433777	-10.63002777	1.0
9	0	-443.7049866	2.861999989	96.86927795	2.308106184	-10.24065113	1.0
10	0	-443.7049866	2.861999989	101.4018784	2.841237307	-9.69474411	1.0
[RightFoot]
7	0	-444.2770081	-29.83799934	16.85939026	-15.87301731	15.43725491	1.0
8	0	-444.2770081	-29.83799934	10.16838169	-14.94703865	15.13501453	1.0
9	0	-444.2770081	-29.83799934	5.626291752	-7.138749123	11.31095505	1.0
10	0	-444.2770081	-29.83799934	-0.2346779108	-6.107199192	7.90434885	1.0
[RightToeBase]
7	0	-87.28699493	107.1060028	-8.89259243	5.238496215e-07	3.152444697e-05	1.0
8	0	-87.28699493	107.1060028	-7.971454144	-5.707741821e-06	2.096758362e-05	1.0
9	0	-87.28699493	107.1060028	-8.134302139	1.00665884e-05	1.36996523e-05	1.0
10	0	-87.28699493	107.1060028	-4.251895905	1.454847279e-05	-7.785743946e-06	1.0
[EndOfFile]
